{"title":"The Ice House S01","uid":15369214,"size":1302407415,"categoryP":"video","categoryS":"tv_shows","magnet":"?xt=urn:btih:d9694daf6aea9fab030540032e3ac9476dd15f6a&amp;dn=The+Ice+House+S01&amp;tr=udp%3A%2F%2Ftracker.leechers-paradise.org%3A6969&amp;tr=udp%3A%2F%2Fzer0day.ch%3A1337&amp;tr=udp%3A%2F%2Fopen.demonii.com%3A1337&amp;tr=udp%3A%2F%2Ftracker.coppersurfer.tk%3A6969&amp;tr=udp%3A%2F%2Fexodus.desync.com%3A6969","seeders":2,"leechers":1,"uploader":"RedBaron58","files":2,"time":1469124654,"description":"The Ice House S01 (mini series) x264 mp4\r\n  \nhttp://www.imdb.com/title/tt0119348/\r\n\r\nTrailer:\r\n\r\nThank you for your kind comments and feedback on my other torrents, your feedback is welcome.\r\n\r\n\r\nAbout the Series:\r\nMrs Phoebe Maybury, a widow in her late thirties, lives in Streech Grange with her two \r\ncompanions Diana and Anne. One day her servant Fred finds a rotting corpse in their ice house, \r\na storage room inside a hillock that hasn't been used for years.\r\nDCI George Walsh thinks it may be the corpse of Phoebe's husband David, who went missing \r\nten years ago. Back then Walsh suspected her for killing her husband, but this was never proven.\r\nInhabitants of the village believe that the three women are lesbians, and that Phoebe did not \r\nonly kill her husband but also her parents.\r\nI hope you enjoy SaM\r\n\r\n\r\nI hope you enjoy.\r\n\r\n\r\nTechnical: (Both episodes are encoded to the same settings)\r\n\r\nGeneral\r\nComplete name                            : I:The Ice House S01The Ice House S01E01 x264 RB58.mp4\r\nFormat                                   : MPEG-4\r\nFormat profile                           : Base Media / Version 2\r\nCodec ID                                 : mp42\r\nFile size                                : 608 MiB\r\nDuration                                 : 1h 24mn\r\nOverall bit rate mode                    : Variable\r\nOverall bit rate                         : 1 000 Kbps\r\nEncoded date                             : UTC 2016-07-17 23:48:39\r\nTagged date                              : UTC 2016-07-17 23:51:34\r\nWriting application                      : HandBrake 0.9.8 2012071700\r\n\r\nVideo\r\nID                                       : 1\r\nFormat                                   : AVC\r\nFormat/Info                              : Advanced Video Codec\r\nFormat profile                           :   \r\nFormat settings, CABAC                   : Yes\r\nFormat settings, ReFrames                : 4 frames\r\nCodec ID                                 : avc1\r\nCodec ID/Info                            : Advanced Video Coding\r\nDuration                                 : 1h 24mn\r\nBit rate                                 : 900 Kbps\r\nWidth                                    : 704 pixels\r\nHeight                                   : 508 pixels\r\nDisplay aspect ratio                     : 3:2\r\nOriginal display aspect ratio            : 3:2\r\nFrame rate mode                          : Constant\r\nFrame rate                               : 25.000 fps\r\nColor space                              : YUV\r\nChroma subsampling                       : 4:2:0\r\nBit depth                                : 8 bits\r\nScan type                                : Progressive\r\nBits/(Pixel*Frame)                       : 0.101\r\nStream size                              : 547 MiB (90%)\r\nWriting library                          : x264 core 120\r\nEncoding settings                        : cabac=1 / ref=1 / deblock=1:0:0\r\nEncoded date                             : UTC 2016-07-17 23:48:39\r\nTagged date                              : UTC 2016-07-17 23:51:34\r\nColor range                              : Limited\r\nColor primaries                          : BT.601 NTSC\r\nTransfer characteristics                 : BT.709\r\nMatrix coefficients                      : BT.601\r\n\r\nAudio\r\nID                                       : 2\r\nFormat                                   : AAC\r\nFormat/Info                              : Advanced Audio Codec\r\nFormat profile                           : LC\r\nCodec ID                                 : 40\r\nDuration                                 : 1h 24mn\r\nBit rate mode                            : Variable\r\nBit rate                                 : 96.0 Kbps\r\nMaximum bit rate                         : 156 Kbps\r\nChannel(s)                               : 2 channels\r\nChannel positions                        : Front: L R\r\nSampling rate                            : 48.0 KHz\r\nCompression mode                         : Lossy\r\nStream size                              : 58.3 MiB (10%)\r\nTitle                                    : Stereo\r\nLanguage                                 : English","torrent":{"xt":"urn:btih:d9694daf6aea9fab030540032e3ac9476dd15f6a","amp;dn":"The+Ice+House+S01","amp;tr":["udp%3A%2F%2Ftracker.leechers-paradise.org%3A6969","udp%3A%2F%2Fzer0day.ch%3A1337","udp%3A%2F%2Fopen.demonii.com%3A1337","udp%3A%2F%2Ftracker.coppersurfer.tk%3A6969","udp%3A%2F%2Fexodus.desync.com%3A6969"],"infoHash":"d9694daf6aea9fab030540032e3ac9476dd15f6a","infoHashBuffer":{"type":"Buffer","data":[217,105,77,175,106,234,159,171,3,5,64,3,46,58,201,71,109,209,95,106]},"announce":[],"urlList":[]}}